<svg width="16" height="16" viewBox="0 0 16 16" fill="none" xmlns="http://www.w3.org/2000/svg">
<path d="M11.7425 10.3432C12.7107 9.02177 13.1444 7.3834 12.9567 5.75589C12.769 4.12838 11.9739 2.63176 10.7303 1.56544C9.48666 0.49912 7.88635 -0.0582551 6.2495 0.00482458C4.61265 0.0679042 3.05997 0.746787 1.90209 1.90565C0.744221 3.06452 0.0665459 4.6179 0.00464636 6.25503C-0.0572531 7.89215 0.501188 9.49229 1.56825 10.7353C2.63531 11.9783 4.13229 12.7725 5.7597 12.9591C7.38711 13.1456 9.02494 12.7107 10.3455 11.7414H10.3445C10.3745 11.7814 10.4065 11.8194 10.4425 11.8564L14.2924 15.7068C14.4799 15.8944 14.7342 15.9999 14.9995 16C15.2647 16.0001 15.5192 15.8948 15.7068 15.7073C15.8944 15.5197 15.9999 15.2653 16 15C16.0001 14.7348 15.8948 14.4803 15.7073 14.2926L11.8575 10.4422C11.8217 10.406 11.7833 10.3736 11.7425 10.3432ZM12.0004 6.49882C12.0004 7.22116 11.8582 7.93643 11.5818 8.60379C11.3054 9.27115 10.9003 9.87753 10.3896 10.3883C9.87889 10.8991 9.2726 11.3043 8.60533 11.5807C7.93807 11.8571 7.2229 11.9994 6.50065 11.9994C5.77841 11.9994 5.06324 11.8571 4.39597 11.5807C3.72871 11.3043 3.12242 10.8991 2.61171 10.3883C2.10101 9.87753 1.6959 9.27115 1.41951 8.60379C1.14312 7.93643 1.00086 7.22116 1.00086 6.49882C1.00086 5.03998 1.5803 3.64089 2.61171 2.60933C3.64312 1.57777 5.04202 0.998251 6.50065 0.998251C7.95929 0.998251 9.35818 1.57777 10.3896 2.60933C11.421 3.64089 12.0004 5.03998 12.0004 6.49882Z" fill="white"/>
</svg>
